<svg id="final_svg" xmlns="http://www.w3.org/2000/svg" xmlns:xlink="http://www.w3.org/1999/xlink" viewBox="111.65198516845703 189.20323181152344 656.2928466796875 131.99244689941406">
      <style type="text/css">.st0{fill:#017261;}	.st1{fill:#005149;}	.st2{fill:#00A888;}	.st3{fill:#1CE598;}</style>
    <metadata>
              <sfw>
                      <slices></slices>
            <slicesourcebounds bottomleftorigin="true" height="315" width="168.1211548" x="0.0000002" y="-0.0000016"></slicesourcebounds>
                  </sfw>
          </metadata>
    <g id="color_index_3" fill="#22b7fc" transform="translate(182.09872346134034, 321.1956864136301) rotate(180) scale(0.41902365976908007)" opacity="1">
              <path d="M65.4057999,310.0415039c-0.0481262,0.0221558-0.2545166,0.1137695-0.2545166,0.1137695		c-9.696064,3.9306641-23.4719963,7.0378723-35.3386841,2.8451233c-12.8404999-4.5297546-16.6589699-21.8623047-11.45541-32.9429932		c8.3854713-18.0065918,24.7446556-24.5202942,38.5210495-29.7985535		c21.9365654-8.4978943,43.3498802-31.2958374,24.8940926-47.5053864		c21.7972412,13.042923,29.5837936,41.5527954,21.0648117,65.9609528		C97.4115982,284.2593689,81.1741409,302.7767029,65.4057999,310.0415039z"></path>
          </g>
    <g id="color_index_2" fill="#0046c8" transform="translate(182.09872346134034, 321.1956864136301) rotate(180) scale(0.41902365976908007)" opacity="1">
              <path d="M62.366066,284.9761658c-31.1917076,12.8390503-45.5010681-10.9485474-27.8571854-23.7875977		c0.3413391-0.2362061,0.70895-0.4988708,1.0764084-0.7350769c3.4856415-2.257019,6.7906876-4.0480957,10.0197678-5.5596008		c3.8069572-1.7819977,7.5054131-3.1834259,11.2273788-4.6182556c11.3664551-4.3900757,22.5900574-12.5989838,28.2079086-21.7694397		c5.5032883-8.983429,5.6474686-18.8477478-4.7725983-26.8771362c3.0240402,1.7604523,7.7907181,5.0726624,11.0336304,8.8114471		c2.7214966,3.1376495,4.2176285,6.8390198,5.2758636,9.0540924		C106.6069107,238.2937317,93.8202667,272.0058899,62.366066,284.9761658z"></path>
          </g>
    <g id="color_index_1" fill="#0046c8" transform="translate(182.09872346134034, 321.1956864136301) rotate(180) scale(0.41902365976908007)" opacity="1">
              <path d="M6.5082188,67.9586411C-6.2177014,95.9101563-6.5548615,168.0206757,64.7629166,193.6405487		c50.5583725,18.1623535,54.0658951,84.1533661,0.3845291,116.5162811c0,0,8.689743-2.4888306,20.5386353-8.6661987		c5.8759232-3.063385,14.2647476-7.5238037,21.7769394-12.824707		c16.6075211-11.7189026,28.0304489-24.1070862,36.3566055-35.8802795		c5.9607391-8.4284668,9.4642639-16.2327576,12.6069183-23.7444916		c10.0098724-23.9260254,13.4511261-54.5099945,1.464859-95.9482422		C134.8239136,53.3453102,46.3180046,61.0707016,79.0211792-0.000001		C79.0211792-0.000001,30.2714977,15.7644291,6.5082188,67.9586411z"></path>
          </g>
    <g id="color_index_0" fill="#22b7fc" transform="translate(182.09872346134034, 321.1956864136301) rotate(180) scale(0.41902365976908007)" opacity="1">
              <path d="M157.710968,228.92276c-3.7231598,7.7174835-8.4454041,16.2169952-14.7689667,25.1351471		c-0.6482849,0.9142914-1.303772,1.7366943-1.303772,1.7366943s0.1950073-0.3262024,1.0296631-1.5611572		c8.2924042-12.2693024,10.7346039-23.891098,12.0500488-37.6769867		c1.4644623-15.3476105,1.4644623-38.7853546-13.9680176-59.7315826		c-15.8813629-21.555481-40.389389-34.0636749-67.0878906-51.3201294		C50.6764679,90.6481171,41.4351463,62.7797012,50.7568169,34.2317581		C58.1485977,11.5941687,79.0211792-0.000001,79.0211792-0.000001		c-25.4680061,54.6905403,59.1294556,54.9791603,82.2080994,134.717514		C173.2018585,176.1752777,167.977005,207.7081604,157.710968,228.92276z"></path>
          </g>
    <g fill="#000000" id="text_group" transform="translate(226.90479401615386, 169.949335)" opacity="1.0">
              <path d="M8.24 125.00L8.24 36.13L43.82 36.13Q51.13 36.13 57.61 38.92Q64.08 41.71 68.92 46.54Q73.75 51.38 76.54 57.85Q79.33 64.33 79.33 71.71L79.33 71.71Q79.33 76.29 78.18 80.63Q77.04 84.97 74.90 88.87Q72.76 92.78 69.66 96.06Q66.56 99.35 62.72 101.76L62.72 101.76L72.57 125.00L53.67 125.00L45.92 107.09L26.03 107.22L26.03 125.00L8.24 125.00ZM26.03 89.49L43.82 89.49Q47.47 89.49 50.70 88.10Q53.92 86.70 56.34 84.29Q58.75 81.87 60.15 78.62Q61.54 75.36 61.54 71.71L61.54 71.71Q61.54 68.05 60.15 64.79Q58.75 61.54 56.34 59.12Q53.92 56.71 50.70 55.31Q47.47 53.92 43.82 53.92L43.82 53.92L26.03 53.92L26.03 89.49ZM146.57 70.53L114.84 108.77Q115.83 109.08 116.82 109.17Q117.81 109.26 118.81 109.26L118.81 109.26Q121.29 109.26 123.58 108.58Q125.87 107.90 127.89 106.63Q129.90 105.36 131.48 103.53Q133.06 101.70 134.05 99.47L134.05 99.47L146.45 111.93Q144.09 115.27 141.02 117.94Q137.96 120.60 134.39 122.46Q130.83 124.32 126.89 125.28Q122.96 126.24 118.81 126.24L118.81 126.24Q111.80 126.24 105.64 123.64Q99.47 121.04 94.85 116.39Q90.24 111.74 87.57 105.33Q84.91 98.91 84.91 91.23L84.91 91.23Q84.91 83.36 87.57 76.85Q90.24 70.34 94.85 65.76Q99.47 61.17 105.64 58.63Q111.80 56.09 118.81 56.09L118.81 56.09Q122.96 56.09 126.92 57.08Q130.89 58.07 134.45 59.93Q138.02 61.79 141.12 64.49Q144.22 67.18 146.57 70.53L146.57 70.53ZM103.81 100.03L123.52 73.87Q122.34 73.44 121.19 73.32Q120.05 73.19 118.81 73.19L118.81 73.19Q115.34 73.19 112.27 74.46Q109.20 75.73 106.94 78.09Q104.68 80.44 103.37 83.76Q102.07 87.08 102.07 91.23L102.07 91.23Q102.07 92.16 102.17 93.33Q102.26 94.51 102.48 95.72Q102.69 96.93 103.00 98.04Q103.31 99.16 103.81 100.03L103.81 100.03ZM212.57 71.83L212.57 71.83L200.18 84.29Q199.25 81.68 197.64 79.61Q196.03 77.53 194.01 76.11Q192.00 74.68 189.64 73.94Q187.29 73.19 184.81 73.19L184.81 73.19Q181.34 73.19 178.27 74.62Q175.20 76.04 172.94 78.62Q170.68 81.19 169.38 84.72Q168.08 88.25 168.08 92.53L168.08 92.53Q168.08 96.00 169.38 99.04Q170.68 102.07 172.94 104.37Q175.20 106.66 178.27 107.96Q181.34 109.26 184.81 109.26L184.81 109.26Q187.29 109.26 189.58 108.58Q191.87 107.90 193.89 106.63Q195.90 105.36 197.48 103.53Q199.06 101.70 200.06 99.47L200.06 99.47L212.45 111.93Q210.10 115.27 207.03 117.94Q203.96 120.60 200.40 122.46Q196.83 124.32 192.90 125.28Q188.96 126.24 184.81 126.24L184.81 126.24Q177.81 126.24 171.64 123.61Q165.47 120.98 160.86 116.39Q156.24 111.80 153.57 105.67Q150.91 99.53 150.91 92.53L150.91 92.53Q150.91 84.91 153.57 78.27Q156.24 71.64 160.86 66.72Q165.47 61.79 171.64 58.94Q177.81 56.09 184.81 56.09L184.81 56.09Q188.96 56.09 192.96 57.14Q196.96 58.19 200.58 60.21Q204.21 62.22 207.28 65.14Q210.34 68.05 212.57 71.83ZM237.74 88.44L237.74 125.00L220.82 125.00L220.82 58.63L224.91 58.63L230.49 66.50Q234.58 62.78 239.78 60.77Q244.99 58.75 250.57 58.75L250.57 58.75L265.50 58.75L265.50 75.61L250.57 75.61Q247.90 75.61 245.55 76.60Q243.19 77.59 241.45 79.33Q239.72 81.06 238.73 83.42Q237.74 85.77 237.74 88.44L237.74 88.44ZM272.01 58.63L288.87 58.63L288.87 95.32Q288.87 98.66 289.89 101.30Q290.91 103.93 292.65 105.73Q294.38 107.53 296.71 108.46Q299.03 109.39 301.69 109.39L301.69 109.39Q304.30 109.39 306.62 108.18Q308.95 106.97 310.68 104.99Q312.42 103.00 313.41 100.49Q314.40 97.98 314.40 95.32L314.40 95.32L314.40 58.63L331.32 58.63L331.32 125.00L327.23 125.00L321.65 117.26Q319.61 119.12 317.28 120.76Q314.96 122.40 312.42 123.61Q309.88 124.82 307.18 125.53Q304.48 126.24 301.69 126.24L301.69 126.24Q295.56 126.24 290.17 124.07Q284.78 121.91 280.72 117.91Q276.66 113.91 274.33 108.18Q272.01 102.44 272.01 95.32L272.01 95.32L272.01 58.63ZM364.17 40.59L364.17 40.59Q364.17 42.95 363.27 44.99Q362.37 47.04 360.82 48.56Q359.27 50.08 357.19 50.97Q355.12 51.87 352.76 51.87L352.76 51.87Q350.41 51.87 348.33 50.97Q346.25 50.08 344.74 48.56Q343.22 47.04 342.32 44.99Q341.42 42.95 341.42 40.59L341.42 40.59Q341.42 38.30 342.32 36.22Q343.22 34.15 344.74 32.63Q346.25 31.11 348.33 30.21Q350.41 29.31 352.76 29.31L352.76 29.31Q355.12 29.31 357.19 30.21Q359.27 31.11 360.82 32.63Q362.37 34.15 363.27 36.22Q364.17 38.30 364.17 40.59ZM361.25 58.63L361.25 125.00L344.21 125.00L344.21 58.63L361.25 58.63ZM369.50 75.61L369.50 58.75L377.74 58.75L377.74 32.23L394.60 32.23L394.60 58.75L420.25 58.75L420.25 75.61L394.60 75.61L394.60 95.32Q394.60 97.98 395.59 100.31Q396.58 102.63 398.31 104.37Q400.05 106.10 402.40 107.12Q404.76 108.15 407.42 108.15L407.42 108.15L420.25 108.15L420.25 125.00L407.42 125.00Q401.29 125.00 395.90 122.68Q390.51 120.36 386.45 116.30Q382.39 112.24 380.06 106.85Q377.74 101.45 377.74 95.32L377.74 95.32L377.74 75.61L369.50 75.61ZM487.87 70.53L456.14 108.77Q457.13 109.08 458.12 109.17Q459.11 109.26 460.10 109.26L460.10 109.26Q462.58 109.26 464.88 108.58Q467.17 107.90 469.18 106.63Q471.20 105.36 472.78 103.53Q474.36 101.70 475.35 99.47L475.35 99.47L487.74 111.93Q485.39 115.27 482.32 117.94Q479.25 120.60 475.69 122.46Q472.13 124.32 468.19 125.28Q464.26 126.24 460.10 126.24L460.10 126.24Q453.10 126.24 446.93 123.64Q440.77 121.04 436.15 116.39Q431.53 111.74 428.87 105.33Q426.20 98.91 426.20 91.23L426.20 91.23Q426.20 83.36 428.87 76.85Q431.53 70.34 436.15 65.76Q440.77 61.17 446.93 58.63Q453.10 56.09 460.10 56.09L460.10 56.09Q464.26 56.09 468.22 57.08Q472.19 58.07 475.75 59.93Q479.32 61.79 482.41 64.49Q485.51 67.18 487.87 70.53L487.87 70.53ZM445.11 100.03L464.81 73.87Q463.64 73.44 462.49 73.32Q461.34 73.19 460.10 73.19L460.10 73.19Q456.63 73.19 453.56 74.46Q450.50 75.73 448.23 78.09Q445.97 80.44 444.67 83.76Q443.37 87.08 443.37 91.23L443.37 91.23Q443.37 92.16 443.46 93.33Q443.56 94.51 443.77 95.72Q443.99 96.93 444.30 98.04Q444.61 99.16 445.11 100.03L445.11 100.03ZM513.28 88.44L513.28 125.00L496.36 125.00L496.36 58.63L500.45 58.63L506.03 66.50Q510.12 62.78 515.32 60.77Q520.53 58.75 526.11 58.75L526.11 58.75L541.04 58.75L541.04 75.61L526.11 75.61Q523.44 75.61 521.09 76.60Q518.73 77.59 517.00 79.33Q515.26 81.06 514.27 83.42Q513.28 85.77 513.28 88.44L513.28 88.44Z"></path>
          </g>
  </svg>